# xmcd CD database file
# Copyright (C) 1993-1998 Ti Kan
# 
# Track frame offsets:
#     150
#     12960
#     22095
#     35437
#     50990
#     64095
#     80682
#     90227
#     101310
#     112900
#     126020
#     137465
#     156212
#     177977
#     197022
# 
# Disc length: 2822 seconds
# 
# Revision: 1
# Processed by: cddbd v1.4b41PL1 Copyright (c) Steve Scherf et al.
# Submitted via: DiscPlay 4.0.4
# 
DISCID=be0b040f
DTITLE=Fleetwood Mac - Mean Old World
DYEAR=1900
DGENRE=
TTITLE0=Albatross
TTITLE1=Preachin' Blues
TTITLE2=Blues With A Feelin'
TTITLE3=TallaHassee Lassie
TTITLE4=Jumping At Shadows
TTITLE5=Linda
TTITLE6=Oh Well
TTITLE7=The Sun Is Shining
TTITLE8=Only You
TTITLE9=I Need Your Love
TTITLE10=You're A MeanMistreater, Mama
TTITLE11=Whole Lotta Love
TTITLE12=Talk With You
TTITLE13=Mean Old World
TTITLE14=Hidden Track
EXTD=
EXTT0=
EXTT1=
EXTT2=
EXTT3=
EXTT4=
EXTT5=
EXTT6=
EXTT7=
EXTT8=
EXTT9=
EXTT10=
EXTT11=
EXTT12=
EXTT13=
EXTT14=
PLAYORDER=
